<?xml version="1.0" encoding="utf-8"?>
<!-- Generator: Adobe Illustrator 24.0.1, SVG Export Plug-In . SVG Version: 6.00 Build 0)  -->
<svg version="1.1" id="Ebene_1" xmlns="http://www.w3.org/2000/svg" xmlns:xlink="http://www.w3.org/1999/xlink" x="0px" y="0px"
	 width="259.6px" height="36.3px" viewBox="0 0 259.6 36.3" enable-background="new 0 0 259.6 36.3" xml:space="preserve">
<g>
	<path fill="#6BFF4F" d="M0,0.9h31v5.8H6.7v8h20.9v5.8H6.7v9.1h24.8v5.8H0V0.9z"/>
	<path fill="#6BFF4F" d="M63.9,11.4C62.8,8.3,60,5.6,51.8,5.6c-4.6,0-9.2,1.1-9.2,4.3c0,1.5,0.9,3,7.7,3.9l8.2,1.2
		c7.7,1.2,12.3,4.2,12.3,10c0,8.2-7.8,11.2-17,11.2c-14.8,0-18.4-7.3-19.2-9.9l6.5-2c1.2,2.5,3.8,6.2,12.9,6.2
		c5.5,0,10.1-1.8,10.1-4.8c0-2.2-2.6-3.7-7.5-4.3l-8.3-1.1c-8-1.1-12.5-4.6-12.5-9.8C35.8,0,49.3,0,51.9,0c14.9,0,17.4,6.9,18.3,9.3
		L63.9,11.4z"/>
	<path fill="#6BFF4F" d="M88.9,6.7H73.4V0.9h37.6v5.8H95.6v28.8h-6.7V6.7z"/>
	<path fill="#6BFF4F" d="M105.6,28.7h6.3v6.7h-6.3V28.7z"/>
	<path fill="#6BFF4F" d="M136.3,4.9c3.7-0.5,6.9-1.7,9.6-4.9h3.5v35.4h-6V8.8h-7.1V4.9z"/>
	<path fill="#6BFF4F" d="M166.6,26.6c0.1,1.5,2.7,4.2,7.3,4.2c5.2,0,10.2-3.1,10.4-11.1c-2,1.5-5.3,3.5-10.5,3.5
		c-9.4,0-14.1-5.4-14.1-11.3c0-7,5.5-12,14.6-12c8.8,0,16.6,5.4,16.6,17.6c0,8.3-4.1,18.7-16.9,18.7c-9.6,0-13.4-6-13.7-9.6H166.6z
		 M174.2,18.1c5.9,0,8.5-3.2,9.9-4.3c-0.8-4.7-4.1-8.4-9.7-8.4c-4.7,0-8.4,2.1-8.4,6.4C166,15.4,169.1,18.1,174.2,18.1z"/>
	<path fill="#6BFF4F" d="M216.5,6.3h-22V0.9h30v3l-17.4,31.5h-7.4L216.5,6.3z"/>
	<path fill="#6BFF4F" d="M244.1,0c11.1,0,15.5,8,15.5,18.2c0,12.2-6.3,18.1-15.5,18.1c-9.2,0-15.6-5.9-15.6-18.1
		C228.4,8,233,0,244.1,0z M244.1,30.8c5.4,0,9.2-4.1,9.2-12.7c0-6.1-1.7-12.7-9.2-12.7s-9.3,6.7-9.3,12.7
		C234.8,26.7,238.7,30.8,244.1,30.8z"/>
</g>
</svg>
