<?xml version="1.0" encoding="utf-8"?>
<!-- Generator: Adobe Illustrator 24.0.1, SVG Export Plug-In . SVG Version: 6.00 Build 0)  -->
<svg version="1.1" id="Ebene_1" xmlns="http://www.w3.org/2000/svg" xmlns:xlink="http://www.w3.org/1999/xlink" x="0px" y="0px"
	 width="850px" height="132.2px" viewBox="0 0 850 132.2" enable-background="new 0 0 850 132.2" xml:space="preserve">
<g>
	<g>
		<path fill="#1D1D1B" d="M0,1.7h14.7L41.2,58l27-56.3h14.7L48.4,72.3H34L0,1.7z"/>
		<path fill="#1D1D1B" d="M132.3,0c31,0,42,18.2,42,37.5c0,14.6-8.6,36.5-42,36.5c-33.4,0-42-21.8-42-36.5
			C90.3,18.2,101.2,0,132.3,0z M160.5,36.8c0-17-12.1-24.9-28.2-24.9s-28.2,8-28.2,24.9c0,20,15,25.4,28.2,25.4
			C145.5,62.2,160.5,56.7,160.5,36.8z"/>
		<path fill="#1D1D1B" d="M194.1,1.7h14.5l47.1,50.9V1.7H269v70.5h-12.6l-49.1-52.8v52.8h-13.2V1.7z"/>
		<path fill="#1D1D1B" d="M326.5,1.7H369c16.6,0,27.6,4.7,27.6,18c0,8.9-4.4,12.2-8.1,14.6c4.9,2.1,10.9,8.1,10.9,17.4
			c0,13.3-10.6,20.5-27.7,20.5h-45.1V1.7z M369.9,29.6c9,0,13-2.2,13-8.1c0-6-4-8.2-13-8.2h-29.6v16.4H369.9z M370.3,60.8
			c8.7,0,15.3-1.7,15.3-10.1c0-7.4-6-9.7-15.3-9.7h-30v19.8H370.3z"/>
		<path fill="#1D1D1B" d="M443.8,1.7h15.7l34.2,70.5h-14.5l-7.4-16.2h-40.6l-7.5,16.2H409L443.8,1.7z M466.4,44.2l-14.7-31.4
			l-14.7,31.4H466.4z"/>
		<path fill="#1D1D1B" d="M506.7,1.7h42.4c16.7,0,28.7,3.8,28.7,21c0,13-9.3,20.2-19.7,20.8l21.6,28.7h-17l-20.5-27.7h-21.8v27.7
			h-13.8V1.7z M547,33.1c11.3,0,17-1.6,17-10c0-8.2-5.7-9.9-17-9.9h-26.6v19.9H547z"/>
		<polygon fill="#1D1D1B" points="738.6,1.7 738.6,29.7 691.2,29.7 691.2,1.7 590.4,1.7 590.4,13.6 621.9,13.6 621.9,72.3 
			635.7,72.3 635.7,13.6 677.5,13.6 677.5,72.3 691.2,72.3 691.2,41.9 738.6,41.9 738.6,72.3 752.3,72.3 752.3,1.7 		"/>
		<path fill="#1D1D1B" d="M800.1,1.7h15.7L850,72.3h-14.5l-7.4-16.2h-40.6L780,72.3h-14.6L800.1,1.7z M822.7,44.2l-14.7-31.4
			l-14.7,31.4H822.7z"/>
	</g>
	<g>
		<path fill="#6BFF4F" d="M590.4,96.8h31v5.8h-24.2v8H618v5.8h-20.9v9.1h24.8v5.8h-31.6V96.8z"/>
		<path fill="#6BFF4F" d="M654.3,107.3c-1.1-3.1-3.9-5.8-12.1-5.8c-4.6,0-9.2,1.1-9.2,4.3c0,1.5,0.9,3,7.7,3.9l8.2,1.2
			c7.7,1.2,12.3,4.2,12.3,10c0,8.2-7.8,11.2-17,11.2c-14.8,0-18.4-7.3-19.2-9.9l6.5-2c1.2,2.5,3.8,6.2,12.9,6.2
			c5.5,0,10.1-1.8,10.1-4.8c0-2.2-2.6-3.7-7.5-4.3l-8.3-1.1c-8-1.1-12.5-4.6-12.5-9.8c0-10.4,13.4-10.4,16.1-10.4
			c14.9,0,17.4,6.9,18.3,9.3L654.3,107.3z"/>
		<path fill="#6BFF4F" d="M679.3,102.6h-15.4v-5.8h37.6v5.8H686v28.8h-6.7V102.6z"/>
		<path fill="#6BFF4F" d="M696,124.6h6.3v6.7H696V124.6z"/>
		<path fill="#6BFF4F" d="M726.7,100.9c3.7-0.5,6.9-1.7,9.6-4.9h3.5v35.4h-6v-26.6h-7.1V100.9z"/>
		<path fill="#6BFF4F" d="M757,122.6c0.1,1.5,2.7,4.2,7.3,4.2c5.2,0,10.2-3.1,10.4-11.1c-2,1.5-5.3,3.5-10.5,3.5
			c-9.4,0-14.1-5.4-14.1-11.3c0-7,5.5-12,14.6-12c8.8,0,16.6,5.4,16.6,17.6c0,8.3-4.1,18.7-16.9,18.7c-9.6,0-13.4-6-13.7-9.6H757z
			 M764.6,114c5.9,0,8.5-3.2,9.9-4.3c-0.8-4.7-4.1-8.4-9.7-8.4c-4.7,0-8.4,2.1-8.4,6.4C756.4,111.4,759.5,114,764.6,114z"/>
		<path fill="#6BFF4F" d="M806.9,102.2h-22v-5.4h30v3l-17.4,31.5h-7.4L806.9,102.2z"/>
		<path fill="#6BFF4F" d="M834.5,95.9c11.1,0,15.5,8,15.5,18.2c0,12.2-6.3,18.1-15.5,18.1c-9.2,0-15.6-5.9-15.6-18.1
			C818.8,104,823.3,95.9,834.5,95.9z M834.5,126.8c5.4,0,9.2-4.1,9.2-12.7c0-6.1-1.7-12.7-9.2-12.7c-7.5,0-9.3,6.7-9.3,12.7
			C825.1,122.7,829,126.8,834.5,126.8z"/>
	</g>
</g>
</svg>
