<?xml version="1.0" encoding="utf-8"?>
<!-- Generator: Adobe Illustrator 24.0.1, SVG Export Plug-In . SVG Version: 6.00 Build 0)  -->
<svg version="1.1" xmlns="http://www.w3.org/2000/svg" xmlns:xlink="http://www.w3.org/1999/xlink" x="0px" y="0px" width="1342px"
	 height="896px" viewBox="0 0 1342 896" enable-background="new 0 0 1342 896" xml:space="preserve">
<g id="Ebene_1" display="none">
</g>
<g id="Ebene_2">
	<g>
		<defs>
			<rect id="SVGID_1_" width="1342" height="896"/>
		</defs>
		<clipPath id="SVGID_2_">
			<use xlink:href="#SVGID_1_"  overflow="visible"/>
		</clipPath>
		<g clip-path="url(#SVGID_2_)">
			<g>
				<rect x="-98" y="-160" fill="#1D1D1B" width="1758" height="1261"/>
			</g>
			<g>
				<path fill="#899E7B" d="M502,658c0,0-1.8-14.3-2.2-32.8c-29.4-31.9-47.3-74.5-47.3-121.2c0-21.1,3.7-41.3,10.4-60.1v0
					c0,0-22.9-161.4-36.9-274.4c-12.7-102.9-47.9-156.1-102-213c-39-41-115-116-115-116H-99.5V1101l173.8,0.1L502,658z"/>
			</g>
			<g>
				<path fill="#FFFFFF" d="M631.5,704C520.9,704,431,614.1,431,503.5C431,392.9,520.9,303,631.5,303S832,392.9,832,503.5
					C832,614.1,742.1,704,631.5,704z M631.5,346C544.7,346,474,416.7,474,503.5S544.7,661,631.5,661S789,590.3,789,503.5
					S718.3,346,631.5,346z"/>
			</g>
			<g>
				<path fill="#FFFFFF" d="M661.8,339.4l-32.1-28.6l100.5-112.9c58.5-166,83.3-358.6,83.5-360.5l42.7,5.4
					c-1,8.2-26,202.3-87.1,373.5l-1.4,3.9L661.8,339.4z"/>
			</g>
			<g>
				
					<rect x="728.9" y="209" transform="matrix(0.9999 -1.704497e-02 1.704497e-02 0.9999 -4.8333 12.8323)" fill="#FFFFFF" width="43" height="161.9"/>
			</g>
			<g>
				<path fill="#FFFFFF" d="M441.6,446.4c-0.2-1.6-23.1-162.8-36.9-274.7c-5.8-46.7-16.4-83.7-33.3-116.6
					c-14.2-27.6-33.1-52.8-63-84.3c-38.3-40.3-113.8-114.8-114.5-115.5l30.2-30.6c0.8,0.8,76.7,75.7,115.5,116.5
					c32.9,34.6,53.8,62.8,70,94.2c19.3,37.5,31.3,79.1,37.7,131c13.8,111.5,36.6,272.4,36.8,274L441.6,446.4z"/>
			</g>
			<g>
				
					<rect x="494" y="136.8" transform="matrix(0.644 -0.765 0.765 0.644 -9.6517 484.2588)" fill="#FFFFFF" width="43" height="231.4"/>
			</g>
			<g>
				<polygon fill="#FFFFFF" points="1652.2,941.6 914.9,611.6 797.8,521 824.2,487 937.1,574.4 1669.8,902.4 				"/>
			</g>
			<g>
				
					<rect x="786" y="572" transform="matrix(1 -7.154030e-03 7.154030e-03 1 -4.224 6.139)" fill="#FFFFFF" width="140" height="43"/>
			</g>
			<g>
				<path fill="#FFFFFF" d="M584.9,1110.9c-1-2-25.6-49.6-51-133.5c-23.4-77-52-200.6-55.6-352.2l43-1
					c3.4,146.1,30.9,265.2,53.3,339.4c24.4,80.5,48.2,127,48.4,127.5L584.9,1110.9z"/>
			</g>
			<g>
				<path fill="#FFFFFF" d="M557.7,912.8l-41.4-11.5c0.4-1.5,10.4-37,42.8-89.2c29.3-47.3,83.8-118.7,176.8-190.1l26.2,34.1
					c-87,66.8-137.9,133.1-165.3,176.9C567.1,880.4,557.8,912.5,557.7,912.8z"/>
			</g>
			<g>
				<g>
					<path fill="#FFFFFF" d="M128.8,493.2h4v9.5l11.3-9.5h5.7l-9.7,8.1l10.7,12.3h-5.2l-8.4-9.9l-4.3,3.6v6.3h-4V493.2z"/>
				</g>
				<g>
					<path fill="#FFFFFF" d="M168,511.2c0,1,0.1,2,0.3,2.4h-3.6c-0.1-0.5-0.2-1-0.2-1.5c-1.5,0.8-3.6,2-6.6,2c-2,0-5.8-0.8-5.8-4.5
						c0-5.1,7.6-5.8,12.4-6.1v-0.7c0-1.1-1-2-3.9-2c-3.2,0-3.9,1.2-4.1,2H153c0.8-4.1,4.8-4.8,7.6-4.8c7.3,0,7.4,3.5,7.4,5.6V511.2z
						 M164.6,506c-2,0.1-3.8,0.4-5.4,0.8c-2.2,0.5-3.2,1.2-3.2,2.5c0,1.3,0.8,2.1,2.5,2.1c2.6,0,4.7-1.1,6.1-2V506z"/>
				</g>
				<g>
					<path fill="#FFFFFF" d="M171.8,498.6h3.4v1.9c1.1-1.1,2.6-2.4,5.6-2.4c3.1,0,5.9,1.3,5.9,5.9v9.6h-3.5v-8.3
						c0-3-0.9-4.2-3.2-4.2c-2.8,0-3.9,1.1-4.8,2.2v10.4h-3.5V498.6z"/>
				</g>
				<g>
					<path fill="#FFFFFF" d="M190.5,498.6h3.4v1.9c1.1-1.1,2.6-2.4,5.6-2.4c3.1,0,5.9,1.3,5.9,5.9v9.6h-3.5v-8.3
						c0-3-0.9-4.2-3.2-4.2c-2.8,0-3.9,1.1-4.8,2.2v10.4h-3.5V498.6z"/>
				</g>
				<g>
					<path fill="#FFFFFF" d="M224.7,509.1c-0.3,1.2-2.3,5-7.8,5c-5.4,0-8.6-3.4-8.6-8.1c0-4.3,2.8-8,8.3-8c5.7,0.1,8.4,3.6,8.4,9
						h-13.2c0.1,1,0.7,4.1,5,4.3c2.2,0,3.6-1,4.1-2.2H224.7z M221.3,504.4c-0.5-2.5-2.3-3.5-4.8-3.5c-1.8,0-3.9,0.6-4.6,3.5H221.3z"
						/>
				</g>
				<g>
					<path fill="#FFFFFF" d="M227.8,498.6h3.4v1.9c1.1-1.1,2.6-2.4,5.6-2.4c3.1,0,5.9,1.3,5.9,5.9v9.6h-3.5v-8.3
						c0-3-0.9-4.2-3.2-4.2c-2.8,0-3.9,1.1-4.8,2.2v10.4h-3.5V498.6z"/>
				</g>
				<g>
					<path fill="#FFFFFF" d="M248.5,513.6V502h-3.3v-3h3.3v-1.7c0-4.6,4.8-4.6,5.9-4.6c1.3,0,2.2,0.2,3.8,0.4v3
						c-1.8-0.4-2.3-0.4-3.1-0.4c-2.8-0.1-3.1,1.4-3.1,2.3v1h5.4v3h-5.4v11.6H248.5z"/>
				</g>
				<g>
					<path fill="#FFFFFF" d="M276,509.1c-0.3,1.2-2.3,5-7.8,5c-5.4,0-8.6-3.4-8.6-8.1c0-4.3,2.8-8,8.3-8c5.7,0.1,8.4,3.6,8.4,9
						h-13.2c0.1,1,0.7,4.1,5,4.3c2.2,0,3.6-1,4.1-2.2H276z M272.6,504.4c-0.5-2.5-2.3-3.5-4.8-3.5c-1.8,0-3.9,0.6-4.6,3.5H272.6z"/>
				</g>
				<g>
					<path fill="#FFFFFF" d="M279.5,493.2h3.5v20.4h-3.5V493.2z"/>
				</g>
				<g>
					<path fill="#FFFFFF" d="M299.9,511.7c-0.8,0.8-2.5,2.4-6,2.4c-4.3,0-7.9-3-7.9-8.1c0-4.6,3.1-7.9,8.1-7.9c2.9,0,4.3,1,5.8,2.1
						v-6.9h3.5v20.4h-3.4V511.7z M299.8,503.1c-1.1-0.9-2.5-2.1-5-2.1c-2.7,0-5.3,1.7-5.3,5.1c0,3.3,2.5,5,5.2,5
						c2.4,0,3.8-1.1,5.1-2.2V503.1z"/>
				</g>
				<g>
					<path fill="#FFFFFF" d="M307.3,498.6h3.4v1.9c0.8-0.8,2.5-2.4,5.8-2.4c5,0,8.1,3.4,8.1,7.9c0,5.1-3.7,8.1-7.9,8.1
						c-3,0-4.4-1-5.9-2.1v6.7h-3.5V498.6z M310.8,509c1.3,1,2.7,2.2,5.1,2.2c2.7,0,5.2-1.7,5.2-5c0-3.4-2.6-5.1-5.3-5.1
						c-2.5,0-3.9,1.2-5,2.1V509z"/>
				</g>
				<g>
					<path fill="#FFFFFF" d="M342.3,511.2c0,1,0.1,2,0.3,2.4H339c-0.1-0.5-0.2-1-0.2-1.5c-1.5,0.8-3.6,2-6.6,2c-2,0-5.8-0.8-5.8-4.5
						c0-5.1,7.6-5.8,12.4-6.1v-0.7c0-1.1-1-2-3.9-2c-3.2,0-3.9,1.2-4.1,2h-3.6c0.8-4.1,4.8-4.8,7.6-4.8c7.3,0,7.4,3.5,7.4,5.6V511.2
						z M338.8,506c-2,0.1-3.8,0.4-5.4,0.8c-2.2,0.5-3.2,1.2-3.2,2.5c0,1.3,0.8,2.1,2.5,2.1c2.6,0,4.7-1.1,6.1-2V506z"/>
				</g>
				<g>
					<path fill="#FFFFFF" d="M346.1,498.6h3.5v2.2h0.1c0.8-1.2,2.3-2.7,5.3-2.7c0.5,0,0.9,0,1.2,0.1v3.8c-0.3-0.1-1-0.3-2.1-0.3
						c-4.4,0-4.4,3-4.5,4v8h-3.5V498.6z"/>
				</g>
				<g>
					<path fill="#FFFFFF" d="M358.5,493.2h3.5v11.5l7.6-6.2h5l-6.4,5.1l6.8,9.9h-4.2l-5.3-7.8l-3.6,2.9v5h-3.5V493.2z"/>
				</g>
			</g>
			<g>
				<g>
					<path fill="#FFFFFF" d="M506.2,493.2h4v9.5l11.3-9.5h5.7l-9.7,8.1l10.7,12.3h-5.2l-8.4-9.9l-4.3,3.6v6.3h-4V493.2z"/>
				</g>
				<g>
					<path fill="#FFFFFF" d="M545.4,511.2c0,1,0.1,2,0.3,2.4h-3.6c-0.1-0.5-0.2-1-0.2-1.5c-1.5,0.8-3.6,2-6.6,2
						c-2,0-5.8-0.8-5.8-4.5c0-5.1,7.6-5.8,12.4-6.1v-0.7c0-1.1-1-2-3.9-2c-3.2,0-3.9,1.2-4.1,2h-3.6c0.8-4.1,4.8-4.8,7.6-4.8
						c7.3,0,7.4,3.5,7.4,5.6V511.2z M542,506c-2,0.1-3.8,0.4-5.4,0.8c-2.2,0.5-3.2,1.2-3.2,2.5c0,1.3,0.8,2.1,2.5,2.1
						c2.6,0,4.7-1.1,6.1-2V506z"/>
				</g>
				<g>
					<path fill="#FFFFFF" d="M549.2,498.6h3.4v1.9c1.1-1.1,2.6-2.4,5.6-2.4c3.1,0,5.9,1.3,5.9,5.9v9.6h-3.5v-8.3
						c0-3-0.9-4.2-3.2-4.2c-2.8,0-3.9,1.1-4.8,2.2v10.4h-3.5V498.6z"/>
				</g>
				<g>
					<path fill="#FFFFFF" d="M567.9,498.6h3.4v1.9c1.1-1.1,2.6-2.4,5.6-2.4c3.1,0,5.9,1.3,5.9,5.9v9.6h-3.5v-8.3
						c0-3-0.9-4.2-3.2-4.2c-2.8,0-3.9,1.1-4.8,2.2v10.4h-3.5V498.6z"/>
				</g>
				<g>
					<path fill="#FFFFFF" d="M602.1,509.1c-0.3,1.2-2.3,5-7.8,5c-5.4,0-8.6-3.4-8.6-8.1c0-4.3,2.8-8,8.3-8c5.7,0.1,8.4,3.6,8.4,9
						h-13.2c0.1,1,0.7,4.1,5,4.3c2.2,0,3.6-1,4.1-2.2H602.1z M598.7,504.4c-0.5-2.5-2.3-3.5-4.8-3.5c-1.8,0-3.9,0.6-4.6,3.5H598.7z"
						/>
				</g>
				<g>
					<path fill="#FFFFFF" d="M605.3,498.6h3.4v1.9c1.1-1.1,2.6-2.4,5.6-2.4c3.1,0,5.9,1.3,5.9,5.9v9.6h-3.5v-8.3
						c0-3-0.9-4.2-3.2-4.2c-2.8,0-3.9,1.1-4.8,2.2v10.4h-3.5V498.6z"/>
				</g>
				<g>
					<path fill="#FFFFFF" d="M625.9,513.6V502h-3.3v-3h3.3v-1.7c0-4.6,4.8-4.6,5.9-4.6c1.3,0,2.2,0.2,3.8,0.4v3
						c-1.8-0.4-2.3-0.4-3.1-0.4c-2.8-0.1-3.1,1.4-3.1,2.3v1h5.4v3h-5.4v11.6H625.9z"/>
				</g>
				<g>
					<path fill="#FFFFFF" d="M653.5,509.1c-0.3,1.2-2.3,5-7.8,5c-5.4,0-8.6-3.4-8.6-8.1c0-4.3,2.8-8,8.3-8c5.7,0.1,8.4,3.6,8.4,9
						h-13.2c0.1,1,0.7,4.1,5,4.3c2.2,0,3.6-1,4.1-2.2H653.5z M650.1,504.4c-0.5-2.5-2.3-3.5-4.8-3.5c-1.8,0-3.9,0.6-4.6,3.5H650.1z"
						/>
				</g>
				<g>
					<path fill="#FFFFFF" d="M656.9,493.2h3.5v20.4h-3.5V493.2z"/>
				</g>
				<g>
					<path fill="#FFFFFF" d="M677.3,511.7c-0.8,0.8-2.5,2.4-6,2.4c-4.3,0-7.9-3-7.9-8.1c0-4.6,3.1-7.9,8.1-7.9c2.9,0,4.3,1,5.8,2.1
						v-6.9h3.5v20.4h-3.4V511.7z M677.2,503.1c-1.1-0.9-2.5-2.1-5-2.1c-2.7,0-5.3,1.7-5.3,5.1c0,3.3,2.5,5,5.2,5
						c2.4,0,3.8-1.1,5.1-2.2V503.1z"/>
				</g>
				<g>
					<path fill="#FFFFFF" d="M684.7,498.6h3.4v1.9c0.8-0.8,2.5-2.4,5.8-2.4c5,0,8.1,3.4,8.1,7.9c0,5.1-3.7,8.1-7.9,8.1
						c-3,0-4.4-1-5.9-2.1v6.7h-3.5V498.6z M688.2,509c1.3,1,2.7,2.2,5.1,2.2c2.7,0,5.2-1.7,5.2-5c0-3.4-2.6-5.1-5.3-5.1
						c-2.5,0-3.9,1.2-5,2.1V509z"/>
				</g>
				<g>
					<path fill="#FFFFFF" d="M705.1,493.2h3.5v20.4h-3.5V493.2z"/>
				</g>
				<g>
					<path fill="#FFFFFF" d="M727.5,511.2c0,1,0.1,2,0.3,2.4h-3.6c-0.1-0.5-0.2-1-0.2-1.5c-1.5,0.8-3.6,2-6.6,2
						c-2,0-5.8-0.8-5.8-4.5c0-5.1,7.6-5.8,12.4-6.1v-0.7c0-1.1-1-2-3.9-2c-3.2,0-3.9,1.2-4.1,2h-3.6c0.8-4.1,4.8-4.8,7.6-4.8
						c7.3,0,7.4,3.5,7.4,5.6V511.2z M724,506c-2,0.1-3.8,0.4-5.4,0.8c-2.2,0.5-3.2,1.2-3.2,2.5c0,1.3,0.8,2.1,2.5,2.1
						c2.6,0,4.7-1.1,6.1-2V506z"/>
				</g>
				<g>
					<path fill="#FFFFFF" d="M729.7,499.1h2.7v-4.9h3.5v4.9h5.2v3h-5.2v6.9c0,1.1,0.4,2.2,2.4,2.2c0.7,0,2.1-0.2,3-0.4v3.1
						c-1.7,0.2-2.5,0.3-3.8,0.3c-3.3,0-5.1-1.1-5.1-4.4V502h-2.7V499.1z"/>
				</g>
				<g>
					<path fill="#FFFFFF" d="M742.7,511.4l9.7-9.9h-9.2v-3h14.6v2.2l-9.7,9.9h10v3h-15.4V511.4z"/>
				</g>
			</g>
			<g>
				
					<rect x="797" y="274.5" transform="matrix(0.762 -0.6475 0.6475 0.762 109.511 872.99)" fill="#FFFFFF" width="891" height="26"/>
			</g>
			<g>
				<path fill="#FFFFFF" d="M329.4,1110l-18.8-18l85.6-89.5c3.7-13.6,19.4-62.4,64.9-115c45.9-53.1,41.6-93.9,41.4-95.7l0,0.1
					l25.8-3.6c0.3,2.1,6.7,53.4-47.5,116.1c-25,29-40.1,56.6-48.2,74.7c-8.9,19.6-11.9,32.6-11.9,32.7l-0.8,3.5l-2.5,2.6L329.4,1110
					z"/>
			</g>
			<g>
				<path fill="#FFFFFF" d="M1201.4,1108.5l-234-333c-34.1-48.5-35.7-114.2-4.1-167.4l22.4,13.3c-13.3,22.4-19.8,47.7-18.9,73.1
					c0.9,24.2,8.5,47.1,21.8,66.1l234,333L1201.4,1108.5z"/>
			</g>
			<g>
				<circle fill="#FF4301" cx="854" cy="382" r="34"/>
			</g>
			<g>
				<g>
					<path d="M442.4,511.8l0-4l9.5,0.1l-9.4-11.4l0.1-5.7l8,9.8l12.5-10.6l0,5.2l-10.1,8.3l3.6,4.4l6.4,0.1l0,4L442.4,511.8z"/>
				</g>
				<g>
					<path d="M463.1,472.9c1,0.1,2,0.2,2.5,0l-0.5,3.5c-0.5,0-1,0.1-1.5,0c0.6,1.6,1.5,3.9,1.1,6.8c-0.3,2-1.6,5.7-5.3,5.2
						c-5.1-0.7-4.8-8.3-4.4-13.2l-0.7-0.1c-1.1-0.2-2.1,0.8-2.5,3.6c-0.4,3.2,0.6,4,1.4,4.3l-0.5,3.6c-4-1.4-4.1-5.5-3.7-8.3
						c1-7.2,4.5-6.9,6.6-6.6L463.1,472.9z M457.5,475.7c-0.2,2-0.1,3.8,0,5.5c0.2,2.2,0.8,3.3,2.1,3.5c1.3,0.2,2.2-0.5,2.4-2.2
						c0.4-2.6-0.5-4.9-1.1-6.3L457.5,475.7z"/>
				</g>
				<g>
					<path d="M451.5,466.4l0.8-3.3l1.8,0.5c-0.8-1.3-1.7-3.1-1-6.1c0.8-3.1,2.7-5.4,7.2-4.3l9.4,2.3l-0.8,3.4l-8.1-2
						c-2.9-0.7-4.3-0.1-4.9,2.1c-0.7,2.7,0.2,4.1,1,5.2l10.1,2.5l-0.8,3.4L451.5,466.4z"/>
				</g>
				<g>
					<path d="M456.5,447.1l1.2-3.2l1.8,0.7c-0.6-1.4-1.4-3.3-0.3-6.1c1.1-3,3.3-5.1,7.6-3.5l9.1,3.3l-1.2,3.3l-7.9-2.9
						c-2.8-1-4.3-0.6-5.1,1.6c-1,2.6-0.3,4.1,0.4,5.3l9.8,3.6l-1.2,3.3L456.5,447.1z"/>
				</g>
				<g>
					<path d="M480.1,419.2c1,0.8,3.5,4.3,1,9.3c-2.4,4.8-6.9,6.2-11.1,4.1c-3.8-1.9-5.9-6.1-3.5-11.1c2.6-5.1,7-6,11.8-3.5
						l-5.9,11.9c0.9,0.3,4,1.2,6.1-2.6c1-2,0.7-3.7-0.1-4.7L480.1,419.2z M474.3,420.2c-2.5-0.7-4.2,0.5-5.3,2.7
						c-0.8,1.6-1.2,3.8,1.1,5.7L474.3,420.2z"/>
				</g>
				<g>
					<path d="M472.8,410.8l1.9-2.9l1.6,1c-0.3-1.5-0.6-3.5,1-6.1c1.7-2.7,4.3-4.3,8.2-1.8l8.2,5.2l-1.9,2.9l-7.1-4.5
						c-2.5-1.6-4.1-1.5-5.3,0.4c-1.5,2.3-1.1,3.9-0.7,5.2l8.8,5.6l-1.9,2.9L472.8,410.8z"/>
				</g>
				<g>
					<path d="M496.8,402.1l-9.2-7.2l-2.1,2.6l-2.3-1.8l2.1-2.6l-1.4-1.1c-3.7-2.9-0.7-6.6,0-7.5c0.8-1,1.5-1.7,2.7-2.7l2.3,1.8
						c-1.5,1.2-1.7,1.5-2.3,2.1c-1.8,2.2-0.9,3.3-0.1,3.9l0.8,0.6l3.4-4.3l2.3,1.8l-3.4,4.3l9.2,7.2L496.8,402.1z"/>
				</g>
				<g>
					<path d="M511.5,378.5c0.7,1,2.1,5.1-1.8,9.2c-3.7,3.9-8.4,3.9-11.8,0.7c-3.1-2.9-3.9-7.6,0-11.6c4-4.1,8.4-3.6,12.4,0.1
						l-9.1,9.6c0.8,0.6,3.4,2.3,6.5-0.7c1.5-1.6,1.8-3.4,1.3-4.6L511.5,378.5z M505.7,377.7c-2.2-1.4-4.1-0.8-5.8,1
						c-1.3,1.3-2.3,3.3-0.6,5.8L505.7,377.7z"/>
				</g>
				<g>
					<path d="M503.4,364.5l2.6-2.3l13.8,15.2l-2.6,2.3L503.4,364.5z"/>
				</g>
				<g>
					<path d="M531.6,365.3c-0.2,1.1-0.5,3.5-3.3,5.6c-3.4,2.6-8.2,2.4-11.3-1.6c-2.8-3.6-2.4-8.2,1.6-11.3c2.3-1.8,4-1.8,5.9-1.9
						l-4.2-5.5l2.8-2.1l12.5,16.2l-2.7,2.1L531.6,365.3z M526.3,358.5c-1.4,0-3.3-0.1-5.3,1.4c-2.1,1.6-3.2,4.6-1.1,7.3
						c2,2.6,5.1,2.5,7.2,0.8c1.9-1.5,2.3-3.2,2.8-4.9L526.3,358.5z"/>
				</g>
				<g>
					<path d="M542.6,348c-0.8-0.3-2.7-1.1-5.4,0.5c-2.2,1.3-2.4,2.6-1.9,3.3c0.6,1,2,0.4,3.9-0.4c3.8-1.7,7.4-3.1,9.3,0.1
						c2.3,3.8-1.8,6.9-3.9,8.2c-4.5,2.7-6.9,1.8-8.9,1.1l1.6-3c2.1,1.1,4.2,0.5,6.1-0.7c1.6-1,2.7-2.3,2.1-3.5
						c-0.6-1-1.4-0.6-4.8,0.9c-5.3,2.3-7.2,1.4-8.4-0.6c-0.8-1.3-1.4-4.8,3.6-7.8c1.5-0.9,4.9-2.5,8.5-1L542.6,348z"/>
				</g>
				<g>
					<path d="M544.8,342l2.4-1.2l-2.2-4.4l3.1-1.6l2.2,4.4l4.7-2.3l1.3,2.7l-4.7,2.3l3.1,6.2c0.5,1,1.4,1.8,3.2,0.9
						c0.6-0.3,1.8-1.1,2.5-1.7l1.4,2.8c-1.4,1-2.1,1.4-3.2,2c-3,1.5-5.1,1.3-6.6-1.6l-3.4-6.9l-2.4,1.2L544.8,342z"/>
				</g>
				<g>
					<path d="M558,335.1l3.2-1.3l0.9,2.1l0.1,0c0.2-1.4,1.1-3.4,3.9-4.6c0.5-0.2,0.8-0.3,1.2-0.4l1.4,3.5c-0.3,0-1,0.1-2.1,0.5
						c-4.1,1.7-3,4.4-2.6,5.4l3,7.4l-3.2,1.3L558,335.1z"/>
				</g>
				<g>
					<path d="M588.6,337.8c0.3,1,0.6,1.9,1,2.3l-3.4,1c-0.3-0.5-0.5-0.9-0.6-1.4c-1.2,1.2-2.9,3-5.7,3.9c-1.9,0.6-5.9,0.9-6.9-2.7
						c-1.5-4.9,5.6-7.8,10.1-9.5l-0.2-0.6c-0.3-1.1-1.6-1.6-4.3-0.7c-3.1,0.9-3.4,2.3-3.3,3.1l-3.5,1.1c-0.4-4.2,3.3-6,5.9-6.9
						c7-2.1,8.1,1.2,8.8,3.2L588.6,337.8z M583.7,333.9c-1.9,0.7-3.5,1.5-5,2.3c-1.9,1.1-2.7,2.1-2.3,3.4c0.4,1.2,1.4,1.8,3,1.3
						c2.5-0.8,4.2-2.5,5.3-3.7L583.7,333.9z"/>
				</g>
				<g>
					<path d="M601.7,326.9c-0.7-0.6-2.2-2-5.3-1.4c-2.5,0.5-3.1,1.6-3,2.4c0.2,1.2,1.7,1.1,3.8,1c4.2-0.3,8-0.4,8.7,3.3
						c0.9,4.4-4.1,5.8-6.5,6.3c-5.1,1-7.1-0.7-8.7-2.1l2.6-2.3c1.6,1.7,3.8,1.9,5.9,1.5c1.8-0.4,3.4-1.2,3.1-2.5
						c-0.2-1.1-1.1-1.1-4.8-0.9c-5.8,0.4-7.3-1.2-7.7-3.5c-0.3-1.5,0.3-5,6.1-6.1c1.7-0.3,5.4-0.7,8.3,2L601.7,326.9z"/>
				</g>
				<g>
					<path d="M619.3,324.9c-0.6-0.7-2-2.2-5.1-1.9c-2.5,0.2-3.3,1.3-3.2,2.1c0.1,1.2,1.6,1.2,3.7,1.3c4.2,0.1,8,0.4,8.3,4.1
						c0.4,4.4-4.6,5.4-7,5.6c-5.2,0.5-7-1.4-8.5-2.9l2.8-2c1.4,1.8,3.6,2.3,5.7,2.1c1.8-0.2,3.5-0.9,3.4-2.2c-0.1-1.1-1-1.2-4.7-1.3
						c-5.8-0.2-7.1-1.9-7.3-4.2c-0.1-1.6,0.8-4.9,6.6-5.5c1.7-0.2,5.5-0.1,8,2.8L619.3,324.9z"/>
				</g>
				<g>
					<path d="M641.3,330.6c-0.3,1.2-2.3,5-7.9,5c-5.4-0.1-8.6-3.5-8.6-8.2c0-4.3,2.9-8,8.5-7.9c5.7,0.1,8.4,3.7,8.3,9.1l-13.3-0.1
						c0.1,1,0.6,4.1,4.9,4.3c2.2,0,3.7-1,4.2-2.2L641.3,330.6z M637.9,325.8c-0.5-2.6-2.2-3.5-4.8-3.6c-1.8,0-4,0.6-4.7,3.5
						L637.9,325.8z"/>
				</g>
			</g>
			<g>
				<g>
					<path d="M739.2,297.7l-0.1-18.3l3.4,0l0.1,14.3l4.7,0l-0.1-12.3l3.4,0l0.1,12.3l5.4,0L756,279l3.4,0l0.1,18.6L739.2,297.7z"/>
				</g>
				<g>
					<path d="M744.4,276.4l0-3.4l1.9,0c-1.1-1.1-2.4-2.6-2.4-5.6c0-3.1,1.3-5.9,5.9-5.9l9.6-0.1l0,3.5l-8.3,0.1
						c-3,0-4.2,0.9-4.2,3.2c0,2.8,1.2,3.9,2.2,4.7l10.4-0.1l0,3.5L744.4,276.4z"/>
				</g>
				<g>
					<path d="M744.8,259.3l0-2.7l-4.9,0l0-3.5l4.9,0l0-5.2l3,0l0,5.2l6.9,0c1.1,0,2.2-0.4,2.2-2.4c0-0.7-0.2-2.1-0.4-3l3.1,0
						c0.2,1.7,0.4,2.5,0.4,3.8c0,3.3-1,5.1-4.3,5.1l-7.7,0l0,2.7L744.8,259.3z"/>
				</g>
				<g>
					<path d="M754.6,229.7c1.2,0.2,5,2.2,5.1,7.8c0,5.4-3.3,8.6-8,8.6c-4.3,0-8-2.8-8-8.3c0-5.7,3.5-8.4,8.9-8.4l0.1,13.2
						c1-0.1,4.1-0.7,4.2-5c0-2.2-1.1-3.6-2.2-4.1L754.6,229.7z M749.9,233.1c-2.5,0.5-3.5,2.3-3.5,4.8c0,1.8,0.6,3.9,3.5,4.6
						L749.9,233.1z"/>
				</g>
				<g>
					<path d="M744.1,226.6l0-3.4l1.9,0c-1.1-1.1-2.4-2.6-2.4-5.6c0-3.1,1.3-5.9,5.9-5.9l9.6-0.1l0,3.5l-8.3,0.1
						c-3,0-4.2,0.9-4.2,3.2c0,2.8,1.2,3.9,2.2,4.7l10.4-0.1l0,3.5L744.1,226.6z"/>
				</g>
				<g>
					<path d="M753,195.4l8.7,7.1l-1.1,3.1l-16.1,0.7l1.2-3.4l11.3-0.3l-8.7-7.1l1-2.9l11.3-0.3l-8.7-7.2l1.2-3.3l12.3,10.5l-1.1,3.1
						L753,195.4z"/>
				</g>
				<g>
					<path d="M768.3,168.4c1.1,0.6,4.1,3.7,2.3,9c-1.7,5.1-5.9,7.1-10.3,5.7c-4-1.3-6.7-5.1-5-10.4c1.8-5.4,6-6.9,11.1-5.2
						l-4.1,12.5c0.9,0.2,4.1,0.6,5.6-3.4c0.7-2.1,0.1-3.8-0.8-4.6L768.3,168.4z M762.7,170.2c-2.6-0.3-4,1.1-4.8,3.4
						c-0.6,1.7-0.6,3.9,1.9,5.5L762.7,170.2z"/>
				</g>
				<g>
					<path d="M753.7,160.4l1-3.3l2.9,0.9l-1,3.3L753.7,160.4z M759.2,162.1l1-3.3l14.3,4.5l-1,3.3L759.2,162.1z"/>
				</g>
				<g>
					<path d="M777.7,146.6c0.5,1,1.6,3.1,0.6,6.4c-1.2,4.1-5.2,6.7-10.1,5.2c-4.4-1.3-6.7-5.3-5.2-10c0.8-2.8,2.2-3.8,3.7-4.9
						l-6.6-2l1-3.3l19.5,5.9l-1,3.3L777.7,146.6z M769.5,144.1c-1.1,0.8-2.7,1.8-3.4,4.2c-0.8,2.5,0.1,5.5,3.3,6.5
						c3.2,1,5.5-0.9,6.3-3.5c0.7-2.3,0-3.9-0.6-5.5L769.5,144.1z"/>
				</g>
				<g>
					<path d="M774.8,126.4c-0.8,0.3-2.7,1-3.6,4c-0.7,2.4,0,3.5,0.8,3.7c1.1,0.3,1.7-1,2.6-2.9c1.7-3.8,3.3-7.2,6.9-6.2
						c4.2,1.2,3.3,6.2,2.6,8.6c-1.4,5-3.9,6-5.8,6.7l-0.8-3.3c2.2-0.6,3.4-2.5,4-4.5c0.5-1.8,0.4-3.5-0.8-3.9
						c-1.1-0.3-1.4,0.5-3,3.9c-2.3,5.3-4.4,5.9-6.6,5.2c-1.5-0.4-4.3-2.5-2.6-8.1c0.5-1.6,1.9-5.1,5.6-6.4L774.8,126.4z"/>
				</g>
				<g>
					<path d="M772,121.5l0.7-2.6l-4.7-1.3l0.9-3.3l4.7,1.3l1.4-5l2.9,0.8l-1.4,5l6.6,1.9c1,0.3,2.2,0.2,2.8-1.7c0.2-0.6,0.4-2,0.4-3
						l2.9,0.8c-0.2,1.7-0.4,2.5-0.7,3.7c-0.9,3.2-2.4,4.6-5.6,3.7l-7.4-2.1l-0.7,2.6L772,121.5z"/>
				</g>
				<g>
					<path d="M775.2,107.9l0.9-3.3l2.2,0.6l0-0.1c-1-1.1-2-2.9-1.3-5.8c0.1-0.5,0.2-0.8,0.4-1.2l3.6,1c-0.2,0.3-0.5,0.9-0.8,2
						c-1.1,4.3,1.7,5.1,2.7,5.4l7.7,2.1l-0.9,3.3L775.2,107.9z"/>
				</g>
				<g>
					<path d="M794.5,84.9c1,0.3,2,0.5,2.4,0.4l-0.9,3.4c-0.5,0-1-0.1-1.5-0.2c0.4,1.6,1,4,0.3,6.9c-0.5,1.9-2.3,5.4-5.9,4.5
						c-4.9-1.3-3.7-8.8-2.7-13.5l-0.6-0.2c-1.1-0.3-2.2,0.5-2.9,3.3c-0.8,3.1,0.2,4,0.9,4.4l-0.9,3.5c-3.7-1.9-3.4-5.9-2.7-8.6
						c1.8-7,5.3-6.2,7.3-5.7L794.5,84.9z M788.6,86.9c-0.4,2-0.6,3.7-0.6,5.4c-0.1,2.2,0.4,3.4,1.6,3.7c1.2,0.4,2.2-0.2,2.7-1.9
						c0.7-2.5,0.1-4.9-0.3-6.4L788.6,86.9z"/>
				</g>
				<g>
					<path d="M790.4,68.4c-0.8,0.3-2.7,1.1-3.5,4.2c-0.6,2.4,0.1,3.5,0.9,3.7c1.1,0.3,1.7-1.1,2.5-3c1.5-3.9,3-7.3,6.7-6.4
						c4.3,1.1,3.5,6.1,2.9,8.5c-1.3,5-3.7,6.1-5.5,6.9l-0.9-3.3c2.2-0.7,3.3-2.6,3.8-4.7c0.5-1.8,0.3-3.6-1-3.9
						c-1.1-0.3-1.4,0.5-2.8,4c-2.1,5.3-4.2,6-6.4,5.5c-1.5-0.4-4.3-2.4-2.9-8c0.4-1.7,1.7-5.2,5.3-6.6L790.4,68.4z"/>
				</g>
				<g>
					<path d="M794.5,51.9c-0.8,0.4-2.7,1.1-3.4,4.2c-0.6,2.4,0.2,3.5,1,3.7c1.1,0.3,1.7-1.1,2.4-3c1.5-3.9,3-7.4,6.6-6.5
						c4.3,1,3.6,6.1,3,8.5c-1.2,5-3.6,6.1-5.5,7l-1-3.3c2.2-0.7,3.3-2.6,3.8-4.7c0.4-1.8,0.3-3.6-1-3.9c-1.1-0.3-1.4,0.5-2.8,4
						c-2.1,5.4-4.1,6.1-6.3,5.5c-1.5-0.4-4.4-2.3-3-8c0.4-1.7,1.7-5.2,5.3-6.6L794.5,51.9z"/>
				</g>
				<g>
					<path d="M805.1,32.6c1.1,0.5,4.4,3.4,3.1,8.8c-1.2,5.2-5.2,7.6-9.8,6.5c-4.1-1-7.1-4.5-5.9-9.9c1.3-5.5,5.4-7.3,10.7-6.1
						l-3,12.8c1,0.1,4.1,0.3,5.3-3.9c0.5-2.1-0.2-3.8-1.2-4.5L805.1,32.6z M799.7,34.9c-2.6-0.1-3.9,1.4-4.5,3.8
						c-0.4,1.8-0.3,4,2.4,5.3L799.7,34.9z"/>
				</g>
			</g>
			<g>
				<g>
					<path d="M405.9,50.7l7.2,17.3l-3.2,1.3l-5.7-13.6l-4.4,1.8l4.9,11.7l-3.2,1.3l-4.9-11.7l-8.1,3.4l-1.5-3.7L405.9,50.7z"/>
				</g>
				<g>
					<path d="M414.2,71.4l1.2,3.3l-19.1,6.9l-1.2-3.3L414.2,71.4z"/>
				</g>
				<g>
					<path d="M402.1,99.4l-1-3.3l1.8-0.6c-1.3-0.7-3.1-1.7-4-4.6c-1-3-0.5-6,3.8-7.4l9.2-2.9l1.1,3.3l-8,2.5
						c-2.8,0.9-3.8,2.1-3.1,4.4c0.8,2.6,2.3,3.4,3.6,3.9l9.9-3.1l1.1,3.3L402.1,99.4z"/>
				</g>
				<g>
					<path d="M419.4,115.3c0-0.3,0.1-0.9-0.1-1.3c-0.1-0.4-0.4-0.8-0.6-1c-0.2,0.3-1,1-2.2,1.3c-4,1-6.3-2.1-7.3-6
						c-0.4-1.4-0.4-2.5-0.3-3.2c-0.3-0.3-0.9-0.8-1.4-0.6c-0.5,0.1-0.8,0.6,0,3.5l1.2,4.6c0.7,3.3,0.3,5.4-2,6
						c-3.5,0.9-5.8-3.9-6.9-8.3c-1.1-4.1-1.2-7.8,1.2-8.4c1.7-0.5,2.4,1,3,2.3l0.1,0c-0.2-1.3,0.2-2.4,1.7-2.8
						c1.5-0.4,2.9,0.7,3.4,1.8l0.1,0c0.5-1.9,1.7-3,3.5-3.5c4.3-1.1,6.3,2.5,7.2,6.1c0.7,2.5,0.4,4.2,0,5.4c0.7,0.4,2,1.2,2.4,2.6
						l0.1,0.5L419.4,115.3z M404,107.1c-0.2-0.8-0.7-1.9-1.6-1.6c-1.2,0.3-0.9,1.9-0.2,4.6c0.7,2.6,1.7,5.4,2.9,5.1
						c1-0.3,0.8-0.8-0.2-4.5L404,107.1z M415.6,111c2.2-0.6,2.2-3,1.8-4.7c-0.5-1.8-1.7-3.7-3.9-3.2c-2.3,0.6-2.3,2.8-1.8,4.6
						S413.5,111.6,415.6,111z"/>
				</g>
				<g>
					<path d="M427.6,116.5l0.7,3.4l-7,1.5c1.2,0.7,2.9,2,3.5,5c0.6,3.1-0.1,6-4.6,7l-9.4,2l-0.7-3.4l8.2-1.7c2.9-0.6,4-1.8,3.5-4
						c-0.6-2.7-1.9-3.6-3.1-4.2l-10.1,2.1l-0.7-3.4L427.6,116.5z"/>
				</g>
				<g>
					<path d="M416.3,153c-1,0.2-2,0.4-2.4,0.7l-0.6-3.5c0.5-0.2,1-0.4,1.5-0.4c-1.1-1.3-2.6-3.2-3.1-6.2c-0.3-2-0.1-5.9,3.5-6.5
						c5-0.8,7,6.5,8.1,11.2l0.7-0.1c1.1-0.2,1.8-1.3,1.3-4.2c-0.5-3.1-1.8-3.6-2.6-3.7l-0.6-3.6c4.2,0.1,5.5,4,6,6.7
						c1.2,7.1-2.2,7.9-4.3,8.2L416.3,153z M420.8,148.8c-0.4-2-1-3.7-1.6-5.2c-0.9-2-1.7-2.9-3-2.7c-1.3,0.2-1.9,1.2-1.6,2.8
						c0.4,2.6,1.9,4.5,2.9,5.7L420.8,148.8z"/>
				</g>
				<g>
					<path d="M414.7,159l11.5-1.6l-0.5-3.3l2.9-0.4l0.5,3.3l1.7-0.2c4.6-0.6,5.2,4.1,5.3,5.2c0.2,1.3,0.1,2.2,0.1,3.8l-2.9,0.4
						c0.2-1.9,0.1-2.3,0-3.1c-0.3-2.8-1.8-2.9-2.7-2.8l-1,0.1l0.7,5.4l-2.9,0.4l-0.7-5.4l-11.5,1.6L414.7,159z"/>
				</g>
				<g>
					<path d="M422.6,185.7c-1.3-0.1-5.3-1.6-5.9-7.2c-0.7-5.3,2.3-8.9,6.9-9.5c4.2-0.5,8.3,1.8,9,7.3c0.6,5.6-2.5,8.8-7.9,9.4
						l-1.6-13.1c-0.9,0.3-4,1.2-3.6,5.4c0.3,2.2,1.5,3.5,2.7,3.8L422.6,185.7z M426.9,181.8c2.5-0.8,3.2-2.7,2.9-5.2
						c-0.2-1.8-1.1-3.8-4-4.1L426.9,181.8z"/>
				</g>
				<g>
					<path d="M433.5,187.5l0.4,3.4l-1.9,0.2c1.2,0.9,2.7,2.3,3.1,5.3c0.4,3.1-0.6,6-5.1,6.6l-9.6,1.2l-0.4-3.4l8.3-1.1
						c2.9-0.4,4.1-1.4,3.8-3.7c-0.4-2.7-1.6-3.7-2.8-4.4l-10.3,1.3l-0.4-3.4L433.5,187.5z"/>
				</g>
				<g>
					<path d="M432.7,217.8c0.6-0.6,2.1-2,1.7-5.2c-0.3-2.5-1.4-3.2-2.2-3.1c-1.2,0.2-1.2,1.6-1.2,3.7c0,4.2-0.1,8-3.8,8.4
						c-4.4,0.6-5.5-4.4-5.8-6.8c-0.7-5.1,1.2-7,2.6-8.5l2.1,2.7c-1.8,1.4-2.1,3.6-1.9,5.8c0.2,1.8,1,3.4,2.3,3.3
						c1.1-0.1,1.1-1,1.2-4.7c0-5.7,1.6-7.1,3.9-7.4c1.6-0.2,4.9,0.6,5.7,6.4c0.2,1.7,0.3,5.4-2.5,8.1L432.7,217.8z"/>
				</g>
				<g>
					<path d="M437.3,221.4l0.3,2.7l4.9-0.6l0.4,3.4l-4.9,0.6l0.7,5.2l-2.9,0.4l-0.7-5.2l-6.8,0.9c-1.1,0.1-2.1,0.7-1.9,2.7
						c0.1,0.7,0.4,2,0.8,2.9l-3,0.4c-0.4-1.7-0.7-2.5-0.8-3.7c-0.4-3.3,0.4-5.2,3.7-5.6l7.6-1l-0.3-2.7L437.3,221.4z"/>
				</g>
				<g>
					<path d="M439.6,235.2l0.5,3.4l-2.2,0.3l0,0.1c1.3,0.6,3,1.9,3.4,4.9c0.1,0.5,0.1,0.9,0.1,1.2l-3.7,0.5c0-0.3,0.1-1,0-2.1
						c-0.6-4.4-3.5-4-4.6-3.9l-7.9,1l-0.5-3.4L439.6,235.2z"/>
				</g>
				<g>
					<path d="M430.7,264c-1,0.1-2,0.3-2.4,0.6l-0.5-3.5c0.5-0.2,1-0.3,1.5-0.4c-1-1.3-2.5-3.3-2.9-6.3c-0.3-2,0.1-5.9,3.7-6.4
						c5-0.7,6.7,6.7,7.7,11.5l0.7-0.1c1.1-0.2,1.8-1.3,1.4-4.1c-0.4-3.2-1.7-3.7-2.5-3.8L437,248c4.2,0.3,5.4,4.2,5.8,6.9
						c1,7.2-2.5,7.8-4.6,8.1L430.7,264z M435.4,259.9c-0.3-2-0.9-3.7-1.5-5.3c-0.8-2.1-1.6-3-2.9-2.8c-1.3,0.1-2,1.1-1.8,2.8
						c0.3,2.6,1.8,4.5,2.7,5.8L435.4,259.9z"/>
				</g>
				<g>
					<path d="M440.6,277.9c0.6-0.6,2.1-2,1.7-5.2c-0.3-2.5-1.4-3.2-2.2-3.1c-1.2,0.2-1.2,1.6-1.2,3.7c0,4.2-0.1,8-3.8,8.4
						c-4.4,0.6-5.6-4.4-5.9-6.8c-0.7-5.1,1.2-7,2.6-8.5l2.1,2.7c-1.8,1.5-2.1,3.6-1.8,5.8c0.2,1.8,1,3.4,2.3,3.2
						c1.1-0.2,1.1-1,1.1-4.7c0-5.7,1.6-7.1,3.9-7.4c1.6-0.2,4.9,0.6,5.7,6.4c0.2,1.7,0.3,5.4-2.5,8.1L440.6,277.9z"/>
				</g>
				<g>
					<path d="M442.9,294.8c0.6-0.6,2.1-2,1.7-5.2c-0.3-2.5-1.4-3.2-2.3-3.1c-1.2,0.2-1.2,1.6-1.2,3.7c0,4.2-0.1,8-3.8,8.4
						c-4.4,0.6-5.6-4.4-5.9-6.8c-0.7-5.1,1.1-7,2.6-8.5l2.1,2.7c-1.8,1.5-2.1,3.6-1.8,5.8c0.2,1.8,1,3.4,2.3,3.2
						c1.1-0.2,1.1-1,1.1-4.7c0-5.7,1.6-7.1,3.9-7.4c1.6-0.2,4.9,0.6,5.7,6.4c0.2,1.7,0.3,5.4-2.5,8.1L442.9,294.8z"/>
				</g>
				<g>
					<path d="M439.9,316.7c-1.3-0.1-5.3-1.6-6-7.1c-0.7-5.3,2.2-9,6.8-9.6c4.2-0.6,8.3,1.7,9,7.2c0.7,5.6-2.4,8.8-7.8,9.5l-1.8-13.1
						c-0.9,0.3-4,1.2-3.6,5.5c0.3,2.2,1.5,3.5,2.7,3.8L439.9,316.7z M444.1,312.7c2.5-0.9,3.2-2.7,2.8-5.2c-0.2-1.8-1.1-3.8-4.1-4.1
						L444.1,312.7z"/>
				</g>
			</g>
			<g>
				<g>
					<path d="M550.8,850.3l1.9-3.5l8.3,4.6l-2.8-14.5l2.7-5l2.4,12.4l15.9-3.4l-2.5,4.6l-12.8,2.5l1.1,5.5l5.5,3.1l-1.9,3.5
						L550.8,850.3z"/>
				</g>
				<g>
					<path d="M586.1,825.1c0.9,0.5,1.8,1,2.2,1l-1.9,3c-0.5-0.2-1-0.4-1.4-0.6c0,1.7-0.2,4.1-1.7,6.7c-1,1.7-3.8,4.5-6.9,2.6
						c-4.3-2.6-1-9.5,1.3-13.8l-0.6-0.3c-1-0.6-2.2-0.1-3.7,2.3c-1.7,2.7-1,3.9-0.4,4.5l-1.9,3.1c-3.1-2.8-1.6-6.6-0.1-9
						c3.8-6.2,6.9-4.5,8.6-3.4L586.1,825.1z M579.9,825.4c-1,1.8-1.7,3.4-2.2,5c-0.7,2.1-0.6,3.3,0.5,4.1c1.1,0.7,2.2,0.4,3.1-1.1
						c1.4-2.2,1.5-4.6,1.5-6.2L579.9,825.4z"/>
				</g>
				<g>
					<path d="M577.6,815.1l1.9-2.9l1.6,1c-0.3-1.5-0.6-3.5,1.1-6c1.7-2.6,4.3-4.2,8.2-1.7l8,5.3l-1.9,2.9l-7-4.6
						c-2.5-1.6-4-1.6-5.3,0.4c-1.5,2.3-1.2,3.9-0.8,5.2l8.7,5.7l-1.9,2.9L577.6,815.1z"/>
				</g>
				<g>
					<path d="M588.1,799.2l2-2.8l1.5,1.1c-0.2-1.5-0.5-3.5,1.3-6c1.8-2.6,4.5-4,8.2-1.4l7.9,5.5l-2,2.8l-6.8-4.8
						c-2.4-1.7-4-1.7-5.3,0.2c-1.6,2.3-1.3,3.8-0.9,5.2l8.5,6l-2,2.8L588.1,799.2z"/>
				</g>
				<g>
					<path d="M616.8,777.7c0.8,0.9,2.6,4.8-0.7,9.3c-3.2,4.3-7.8,4.9-11.6,2c-3.4-2.6-4.7-7-1.4-11.5c3.4-4.5,7.9-4.6,12.2-1.3
						l-7.9,10.5c0.8,0.5,3.7,1.9,6.4-1.4c1.3-1.7,1.4-3.5,0.7-4.6L616.8,777.7z M611,777.5c-2.4-1.1-4.2-0.3-5.7,1.7
						c-1.1,1.5-1.9,3.5,0,5.8L611,777.5z"/>
				</g>
				<g>
					<path d="M610.5,768.6l2.1-2.7l1.5,1.2c-0.2-1.5-0.3-3.5,1.6-5.9c2-2.5,4.7-3.8,8.3-0.9l7.5,6l-2.2,2.7l-6.5-5.2
						c-2.3-1.9-3.9-1.9-5.3-0.1c-1.7,2.2-1.5,3.8-1.2,5.1l8.1,6.5l-2.2,2.7L610.5,768.6z"/>
				</g>
				<g>
					<path d="M635.2,762l-8.9-7.4l-2.1,2.6l-2.3-1.9l2.1-2.6l-1.3-1.1c-3.6-3-0.5-6.6,0.3-7.5c0.8-1,1.6-1.6,2.8-2.6l2.3,1.9
						c-1.5,1.1-1.8,1.5-2.3,2.1c-1.9,2.1-1,3.3-0.2,3.9l0.8,0.7l3.5-4.1l2.3,1.9l-3.5,4.1l8.9,7.4L635.2,762z"/>
				</g>
				<g>
					<path d="M649.7,738.3c0.8,1,2.3,5-1.4,9.2c-3.6,4-8.2,4.2-11.7,1.1c-3.2-2.8-4.1-7.4-0.5-11.5c3.8-4.2,8.2-3.9,12.3-0.3
						l-8.7,9.9c0.8,0.5,3.5,2.2,6.5-0.9c1.4-1.6,1.6-3.4,1.1-4.6L649.7,738.3z M643.9,737.7c-2.3-1.3-4.1-0.6-5.8,1.3
						c-1.2,1.4-2.1,3.3-0.4,5.8L643.9,737.7z"/>
				</g>
				<g>
					<path d="M640.4,725.1l2.3-2.6l15,13.7l-2.3,2.6L640.4,725.1z"/>
				</g>
				<g>
					<path d="M667.8,722.6c0,1.1,0,3.5-2.3,6c-2.9,3.1-7.7,3.7-11.3,0.1c-3.3-3.1-3.6-7.7-0.2-11.3c2-2.1,3.7-2.4,5.5-2.8l-5-4.7
						l2.4-2.5l14.8,14l-2.4,2.5L667.8,722.6z M661.6,716.8c-1.4,0.2-3.2,0.4-5,2.2c-1.8,1.9-2.4,5,0,7.3c2.4,2.3,5.4,1.7,7.2-0.3
						c1.6-1.7,1.8-3.5,1.9-5.2L661.6,716.8z"/>
				</g>
				<g>
					<path d="M674.9,703.4c-0.9-0.1-2.9-0.4-5.1,1.8c-1.8,1.8-1.7,3.1-1.1,3.7c0.8,0.8,2-0.1,3.7-1.3c3.3-2.5,6.4-4.7,9-2.1
						c3.1,3.1-0.1,7.1-1.8,8.8c-3.7,3.7-6.3,3.3-8.3,3.1l0.9-3.3c2.2,0.5,4.2-0.5,5.7-2.1c1.3-1.3,2.1-2.9,1.2-3.8
						c-0.8-0.8-1.5-0.3-4.5,2c-4.5,3.5-6.7,3-8.3,1.4c-1.1-1.1-2.5-4.3,1.6-8.4c1.2-1.2,4.1-3.6,8-2.9L674.9,703.4z"/>
				</g>
				<g>
					<path d="M675.1,697.5l1.9-1.9l-3.4-3.5l2.5-2.4l3.4,3.5l3.8-3.6l2.1,2.1l-3.8,3.6l4.8,5c0.7,0.8,1.8,1.3,3.3-0.1
						c0.5-0.5,1.4-1.6,1.8-2.4l2.1,2.2c-1.1,1.3-1.6,2-2.5,2.8c-2.4,2.3-4.4,2.8-6.7,0.4l-5.3-5.6l-1.9,1.9L675.1,697.5z"/>
				</g>
				<g>
					<path d="M685,687.3l2.5-2.4l1.5,1.6l0.1-0.1c-0.3-1.4-0.2-3.6,2-5.6c0.4-0.3,0.6-0.6,0.9-0.8l2.6,2.7c-0.3,0.2-0.9,0.5-1.7,1.2
						c-3.2,3-1.2,5.2-0.5,6l5.4,5.8l-2.5,2.4L685,687.3z"/>
				</g>
				<g>
					<path d="M713.8,678.1c0.7,0.8,1.4,1.5,1.8,1.6l-2.6,2.4c-0.4-0.3-0.8-0.6-1.2-1c-0.5,1.6-1.3,3.9-3.6,5.9
						c-1.5,1.3-4.9,3.3-7.4,0.5c-3.4-3.8,1.8-9.4,5.2-12.8l-0.4-0.5c-0.8-0.9-2.1-0.8-4.2,1.1c-2.4,2.1-2.1,3.5-1.7,4.2L697,682
						c-2.1-3.6,0.4-6.8,2.5-8.7c5.4-4.8,7.9-2.3,9.2-0.8L713.8,678.1z M707.7,676.6c-1.4,1.4-2.6,2.8-3.5,4.2c-1.3,1.8-1.5,3-0.7,4
						c0.8,1,2,1,3.3-0.1c2-1.8,2.8-4,3.2-5.5L707.7,676.6z"/>
				</g>
				<g>
					<path d="M720,662.2c-0.9-0.2-2.8-0.7-5.3,1.4c-1.9,1.6-1.9,2.9-1.4,3.6c0.8,0.9,2,0.1,3.8-1c3.5-2.3,6.7-4.2,9.1-1.4
						c2.9,3.4-0.6,7-2.5,8.6c-3.9,3.4-6.5,2.8-8.5,2.5l1.1-3.2c2.2,0.7,4.2-0.2,5.8-1.6c1.4-1.2,2.3-2.7,1.5-3.7
						c-0.7-0.9-1.5-0.4-4.6,1.6c-4.8,3.1-6.9,2.5-8.4,0.8c-1-1.2-2.2-4.4,2.3-8.2c1.3-1.1,4.4-3.2,8.2-2.3L720,662.2z"/>
				</g>
				<g>
					<path d="M733.3,651.3c-0.9-0.2-2.8-0.7-5.3,1.3c-1.9,1.6-2,2.9-1.4,3.5c0.7,0.9,2,0.1,3.8-1c3.5-2.2,6.8-4.1,9.2-1.2
						c2.8,3.4-0.8,7-2.7,8.6c-4,3.3-6.6,2.7-8.6,2.3l1.2-3.2c2.2,0.8,4.2-0.1,5.9-1.5c1.4-1.2,2.4-2.7,1.5-3.7
						c-0.7-0.9-1.4-0.4-4.6,1.5c-4.9,3-6.9,2.4-8.4,0.6c-1-1.2-2.1-4.5,2.4-8.2c1.3-1.1,4.4-3.1,8.2-2.1L733.3,651.3z"/>
				</g>
				<g>
					<path d="M753.7,642.6c0.6,1.1,1.3,5.3-3.1,8.8c-4.2,3.3-8.8,2.7-11.7-1c-2.6-3.3-2.7-8,1.6-11.4c4.5-3.5,8.8-2.4,12.1,1.9
						l-10.4,8.2c0.7,0.7,3.1,2.8,6.5,0.3c1.7-1.4,2.2-3.1,1.9-4.3L753.7,642.6z M748.1,641c-2-1.7-3.9-1.3-5.9,0.2
						c-1.4,1.1-2.7,2.9-1.5,5.6L748.1,641z"/>
				</g>
			</g>
			<g>
				<g>
					<path d="M852.4,527.9L852.4,527.9l-9.5,12.2l-2.8-2.2l12.5-16.1l4.2,3.3l-4.2,15.8l14.4-8l4.1,3.2l-12.5,16.1l-2.8-2.2
						l9.4-12.2l0,0l-14.6,8.2l-2.5-1.9L852.4,527.9z"/>
				</g>
				<g>
					<path d="M877,560.7c-1,0.8-4.9,2.6-9.3-0.8c-4.3-3.3-4.7-7.9-1.9-11.6c2.6-3.4,7.1-4.6,11.5-1.2c4.4,3.5,4.4,7.9,1.1,12.2
						l-10.4-8.1c-0.5,0.8-2,3.6,1.3,6.4c1.7,1.3,3.5,1.4,4.6,0.8L877,560.7z M877.2,554.8c1.1-2.3,0.3-4.2-1.6-5.7
						c-1.4-1.1-3.5-1.9-5.8-0.1L877.2,554.8z"/>
				</g>
				<g>
					<path d="M884.3,553.7l2.1,1.6l3-3.9l2.7,2.1l-3,3.9l4.1,3.2l-1.8,2.3l-4.1-3.2l-4.2,5.4c-0.7,0.8-1,2,0.6,3.2
						c0.5,0.4,1.7,1.1,2.6,1.5l-1.9,2.4c-1.5-0.9-2.2-1.3-3.2-2c-2.6-2-3.4-4-1.4-6.6l4.7-6.1l-2.1-1.6L884.3,553.7z"/>
				</g>
				<g>
					<path d="M887,571.4l13.7-1.9l-7.2-5.6l1.8-2.3l11.5,8.9l-1.3,1.7l-13.7,1.9l7.9,6.1l-1.8,2.3l-12.2-9.4L887,571.4z"/>
				</g>
				<g>
					<path d="M915.1,590.2c-1,0.8-4.9,2.6-9.3-0.8c-4.3-3.3-4.7-7.9-1.9-11.6c2.6-3.4,7.1-4.6,11.5-1.2c4.4,3.5,4.4,7.9,1.1,12.2
						l-10.4-8.1c-0.5,0.8-2,3.6,1.3,6.4c1.7,1.3,3.5,1.4,4.6,0.8L915.1,590.2z M915.3,584.4c1.1-2.3,0.3-4.2-1.6-5.7
						c-1.4-1.1-3.5-1.9-5.8-0.1L915.3,584.4z"/>
				</g>
				<g>
					<path d="M924,583.8l2.7,2.1l-1.4,1.8l0.1,0.1c1.4-0.5,3.5-0.8,5.8,1.1c0.4,0.3,0.7,0.5,0.9,0.8l-2.3,3
						c-0.2-0.3-0.6-0.8-1.5-1.5c-3.5-2.7-5.3-0.4-6,0.5l-4.9,6.3l-2.7-2.1L924,583.8z"/>
				</g>
				<g>
					<path d="M942.2,599.2c-0.2-0.9-0.6-2.9-3.5-4.1c-2.3-1-3.5-0.5-3.8,0.3c-0.5,1.1,0.8,1.8,2.5,3c3.5,2.2,6.7,4.3,5.2,7.7
						c-1.8,4-6.6,2.4-8.9,1.4c-4.7-2.1-5.4-4.7-5.9-6.7l3.4-0.4c0.3,2.3,2,3.7,4,4.6c1.7,0.8,3.4,0.9,4-0.3c0.5-1-0.3-1.5-3.4-3.5
						c-4.9-3-5.2-5.1-4.3-7.2c0.6-1.4,3.1-3.9,8.4-1.5c1.6,0.7,4.8,2.6,5.6,6.4L942.2,599.2z"/>
				</g>
				<g>
					<path d="M947.7,597.1l2.5,1.1l2-4.5l3.2,1.4l-2,4.5l4.8,2.1l-1.2,2.7l-4.8-2.1l-2.8,6.3c-0.4,1-0.5,2.2,1.3,3
						c0.6,0.3,2,0.7,2.9,0.8l-1.2,2.8c-1.7-0.5-2.4-0.7-3.6-1.2c-3-1.4-4.2-3.1-2.9-6.1l3.1-7l-2.5-1.1L947.7,597.1z"/>
				</g>
				<g>
					<path d="M960.7,602.4l3.2,1.4l-0.9,2l0.1,0c1.2-0.8,3.2-1.6,5.9-0.4c0.5,0.2,0.8,0.4,1.1,0.6l-1.5,3.4
						c-0.3-0.2-0.8-0.7-1.8-1.1c-4-1.8-5.3,0.9-5.7,1.9l-3.3,7.3l-3.2-1.4L960.7,602.4z"/>
				</g>
				<g>
					<path d="M980.5,625.1c-0.4,0.9-0.8,1.9-0.7,2.3l-3.2-1.5c0.1-0.5,0.2-1,0.4-1.5c-1.7,0.2-4.1,0.4-6.8-0.8
						c-1.8-0.8-5-3.1-3.5-6.5c2.1-4.6,9.3-2.2,13.8-0.5l0.3-0.6c0.5-1-0.1-2.2-2.8-3.4c-2.9-1.3-4-0.5-4.5,0.2l-3.3-1.5
						c2.4-3.4,6.4-2.4,8.9-1.2c6.6,3,5.3,6.2,4.5,8.1L980.5,625.1z M979.4,619c-1.9-0.7-3.6-1.2-5.2-1.5c-2.2-0.4-3.4-0.2-4,1
						c-0.6,1.2-0.1,2.2,1.4,2.9c2.4,1.1,4.8,0.9,6.3,0.7L979.4,619z"/>
				</g>
				<g>
					<path d="M997.6,624c-0.2-0.9-0.6-2.9-3.5-4.1c-2.3-1-3.5-0.5-3.8,0.3c-0.5,1.1,0.8,1.8,2.5,3c3.5,2.2,6.7,4.3,5.2,7.7
						c-1.8,4-6.6,2.4-8.9,1.4c-4.7-2.1-5.4-4.7-5.9-6.7l3.4-0.4c0.3,2.3,2,3.7,4,4.6c1.7,0.8,3.4,0.9,4-0.3c0.5-1-0.3-1.5-3.4-3.5
						c-4.9-3-5.2-5.1-4.3-7.2c0.6-1.4,3.1-3.9,8.4-1.5c1.6,0.7,4.8,2.6,5.6,6.4L997.6,624z"/>
				</g>
				<g>
					<path d="M1013.2,631c-0.2-0.9-0.6-2.9-3.5-4.1c-2.3-1-3.5-0.5-3.8,0.3c-0.5,1.1,0.8,1.8,2.5,3c3.5,2.2,6.7,4.3,5.2,7.7
						c-1.8,4-6.6,2.4-8.9,1.4c-4.7-2.1-5.4-4.7-5.9-6.7l3.4-0.4c0.3,2.3,2,3.7,4,4.6c1.7,0.8,3.4,0.9,4-0.3c0.5-1-0.3-1.5-3.4-3.5
						c-4.9-3-5.2-5.1-4.3-7.2c0.6-1.4,3.1-3.9,8.4-1.5c1.6,0.7,4.8,2.6,5.6,6.4L1013.2,631z"/>
				</g>
				<g>
					<path d="M1030.2,645.1c-0.7,1-4.1,3.6-9.2,1.4c-4.9-2.2-6.5-6.6-4.6-10.9c1.7-3.9,5.8-6.1,10.9-3.9c5.1,2.4,6.2,6.7,4,11.6
						l-12-5.4c-0.3,0.9-1.1,4,2.8,5.9c2,0.9,3.7,0.5,4.7-0.3L1030.2,645.1z M1029.1,639.4c0.6-2.5-0.6-4.1-2.9-5.1
						c-1.7-0.7-3.8-1-5.6,1.3L1029.1,639.4z"/>
				</g>
			</g>
			<g>
				<g>
					<path fill="#FFFFFF" d="M828.6,309.5h3.5l6.4,13.5l6.5-13.5h3.5l-8.3,17h-3.5L828.6,309.5z"/>
				</g>
				<g>
					<path fill="#FFFFFF" d="M860.4,309.1c7.5,0,10.1,4.4,10.1,9c0,3.5-2.1,8.8-10.1,8.8c-8,0-10.1-5.2-10.1-8.8
						C850.3,313.4,853,309.1,860.4,309.1z M867.2,317.9c0-4.1-2.9-6-6.8-6c-3.9,0-6.8,1.9-6.8,6c0,4.8,3.6,6.1,6.8,6.1
						S867.2,322.7,867.2,317.9z"/>
				</g>
				<g>
					<path fill="#FFFFFF" d="M875.3,309.5h3.5l11.3,12.2v-12.2h3.2v17h-3l-11.8-12.7v12.7h-3.2V309.5z"/>
				</g>
				<g>
					<path fill="#FFFFFF" d="M907.1,309.5h10.2c4,0,6.6,1.1,6.6,4.3c0,2.1-1,2.9-2,3.5c1.2,0.5,2.6,2,2.6,4.2c0,3.2-2.5,4.9-6.7,4.9
						h-10.8V309.5z M917.6,316.2c2.2,0,3.1-0.5,3.1-2c0-1.4-1-2-3.1-2h-7.1v3.9H917.6z M917.7,323.7c2.1,0,3.7-0.4,3.7-2.4
						c0-1.8-1.4-2.3-3.7-2.3h-7.2v4.8H917.7z"/>
				</g>
				<g>
					<path fill="#FFFFFF" d="M935.3,309.5h3.8l8.2,17h-3.5l-1.8-3.9h-9.8l-1.8,3.9H927L935.3,309.5z M940.8,319.7l-3.5-7.6l-3.5,7.6
						H940.8z"/>
				</g>
				<g>
					<path fill="#FFFFFF" d="M950.5,309.5h10.2c4,0,6.9,0.9,6.9,5.1c0,3.1-2.2,4.9-4.7,5l5.2,6.9h-4.1l-4.9-6.7h-5.2v6.7h-3.3V309.5
						z M960.2,317c2.7,0,4.1-0.4,4.1-2.4c0-2-1.4-2.4-4.1-2.4h-6.4v4.8H960.2z"/>
				</g>
				<g>
					<polygon fill="#FFFFFF" points="1006.2,309.5 1006.2,316.2 994.8,316.2 994.8,309.5 970.6,309.5 970.6,312.3 978.2,312.3 
						978.2,326.4 981.5,326.4 981.5,312.3 991.5,312.3 991.5,326.4 994.8,326.4 994.8,319.1 1006.2,319.1 1006.2,326.4 
						1009.5,326.4 1009.5,309.5 					"/>
				</g>
				<g>
					<path fill="#FFFFFF" d="M1021,309.5h3.8l8.2,17h-3.5l-1.8-3.9h-9.8l-1.8,3.9h-3.5L1021,309.5z M1026.4,319.7l-3.5-7.6l-3.5,7.6
						H1026.4z"/>
				</g>
			</g>
		</g>
	</g>
</g>
<g id="Ebene_4">
</g>
<g id="Ebene_3" display="none">
</g>
</svg>
